<?xml version="1.0" encoding="utf-8"?>
<!-- Svg Vector Icons : http://www.onlinewebfonts.com/icon -->
<!DOCTYPE svg PUBLIC "-//W3C//DTD SVG 1.1//EN" "http://www.w3.org/Graphics/SVG/1.1/DTD/svg11.dtd">
<svg version="1.1" xmlns="http://www.w3.org/2000/svg" xmlns:xlink="http://www.w3.org/1999/xlink" x="0px" y="0px" viewBox="0 0 1000 1000" enable-background="new 0 0 1000 1000" xml:space="preserve">
<metadata> Svg Vector Icons : http://www.onlinewebfonts.com/icon </metadata>
<g><g><path d="M955.1,140.5H44.9c-19.2,0-34.9,15.6-34.9,34.9v606.8c0,19.3,15.7,34.9,34.9,34.9h628.4v-28.5h-21.2v-41.3H79.8v-537h840.4v422.4h1.3v133h-19.6V817h53.3c19.3,0,34.9-15.6,34.9-34.9V175.3C989.9,156.1,974.4,140.5,955.1,140.5z M955.1,522.2c-12.1,0-21.9-9.8-21.9-21.9c0-12,9.8-21.9,21.9-21.9c12.1,0,21.9,9.8,21.9,21.9C977,512.4,967.1,522.2,955.1,522.2z M857.2,588.8h3.8h20.6V240.5H120.3v477.9h512.9V713h-20.5v-27.2h-16.6V678h-79.8v-24.3h79.8v-24.1h1.6h19.9h32.5v9.1h19.3v-34.1H516.4v-24.3h153.1v-49H516.4v-24.3h153.1v-29.4H690v-19.6H162.5v-24.3h674.9v24.3H733.3v19.6h18.2v29.4h85v24.3h-85v23.4H787v20.3h16.5h3h35.7v13.5H857.2L857.2,588.8z M483.5,677.9h-320v-24.2h320V677.9z M163.3,507.1h320.2v24.3H163.3V507.1z M163.3,580.4h320.2v24.3H163.3V580.4z M375.9,285.7c-4.9,0.6-8.1,1.4-9.8,2.4c-1.6,1-3,2.6-3.9,4.8c-0.9,2.3-1.4,6.1-1.4,11.5v95.5h-2.9l-77.6-95.5v72.9c0,6.6,1.5,11.1,4.5,13.4c3,2.3,6.5,3.4,10.4,3.4h2.7v3.2h-40.7v-3.1c6.3-0.1,10.7-1.3,13.2-3.9c2.5-2.5,3.7-6.9,3.7-13v-81l-2.5-3c-2.4-3-4.5-5-6.4-6c-1.9-0.9-4.6-1.5-8.1-1.6v-3h40.7l56.6,71.2v-49.4c0-6.9-1-11.6-3-14c-2.7-3.2-7.2-4.8-13.6-4.7v-3.1h38L375.9,285.7L375.9,285.7z M477.4,397.3h-99.2v-3.2h3.8c3.3,0,6-0.6,8.1-1.8c1.4-0.7,2.5-2.1,3.4-4.1c0.6-1.4,0.9-4.9,0.9-10.7v-75.5c0-5.2-0.1-8.4-0.4-9.6c-0.5-1.9-1.6-3.5-3.1-4.5c-2.1-1.6-5.1-2.4-8.8-2.4h-3.8v-3.1h96.1v33.9H471c-1.6-8.3-3.9-14.2-6.9-17.8c-3-3.6-7.2-6.3-12.6-8c-3.2-1-9.1-1.6-17.8-1.6h-11.9v46.7h2.3c7.3,0,12.5-2.2,15.8-6.9c3.3-4.6,5.4-11.3,6.2-20.3h3.2v60.1h-3.2c-0.6-6.5-2.1-11.9-4.3-16c-2.2-4.2-4.7-7-7.6-8.4c-2.9-1.4-7.1-2.2-12.5-2.2v32.3c0,6.3,0.3,10.2,0.8,11.7c0.6,1.4,1.5,2.5,3,3.4c1.5,1,3.8,1.4,7.1,1.4h6.9c10.7,0,19.3-2.5,25.8-7.5c6.5-4.9,11.1-12.5,13.9-22.6h3.1L477.4,397.3z M657,285.7c-2.2,0.2-4,0.8-5.5,1.8c-1.5,1.1-2.8,2.6-3.9,4.7c-0.3,0.6-2.1,5-5.4,13.1l-36,94.7H603l-28.4-74l-31.3,73.9h-3.1l-37.7-93.6c-3.8-9.5-6.5-15.2-8-17.1c-1.5-2-4.1-3.1-7.7-3.5v-3.2h49.8v3.1c-4,0.1-6.7,0.7-8,1.9c-1.3,1-2,2.5-2,4.1c0,2.1,1.4,6.7,4.1,13.6l22.5,55.7l18.1-43.5l-4.7-12.2c-2.6-6.7-4.6-11.1-5.9-13.3c-1.4-2.2-3.1-3.8-4.8-4.8c-1.9-0.9-4.5-1.4-8.2-1.4v-3.2h55.6v3.1c-3.9,0.1-6.7,0.4-8.4,0.9c-1.2,0.4-2.1,1.1-2.8,1.9c-0.6,0.9-1,2-1,3.1c0,1.3,1.2,5.3,3.8,12l20.9,54.3l18.7-49.2c1.9-5,3.1-8.5,3.6-10.4c0.5-1.9,0.7-3.5,0.7-5.2c0-2.3-0.8-4.2-2.3-5.5c-1.6-1.4-4.6-2-9.1-2.2v-3.1h29.7v3.1L657,285.7L657,285.7z M731.5,389.6c-7.5,6.9-17,10.4-28.5,10.4c-3.6,0-7-0.4-10.2-1.1c-3.2-0.7-7.2-2.1-12.1-4.1c-2.7-1.1-4.9-1.7-6.7-1.7c-1.5,0-3,0.6-4.6,1.7c-1.7,1.1-3,2.8-4,5.2h-3.2v-43.3h3.2c2.4,12.2,7.2,21.5,14.3,27.9c7.1,6.4,14.7,9.6,22.9,9.6c6.3,0,11.4-1.7,15.1-5.2c3.7-3.4,5.6-7.5,5.6-12c0-2.7-0.7-5.3-2.1-7.9c-1.5-2.5-3.6-5-6.6-7.2c-2.9-2.3-8.1-5.3-15.6-8.9c-10.4-5.1-17.9-9.5-22.5-13.1c-4.6-3.6-8-7.6-10.5-12.1c-2.4-4.5-3.6-9.4-3.6-14.7c0-9.2,3.3-16.9,10-23.4c6.7-6.5,15.2-9.6,25.4-9.6c3.7,0,7.3,0.5,10.8,1.4c2.7,0.6,5.9,1.9,9.6,3.8c3.8,1.8,6.5,2.7,8.1,2.7c1.5,0,2.6-0.5,3.5-1.4c0.8-0.9,1.6-3.1,2.3-6.5h2.5l0.9,38.3h-3.4c-1.7-9.6-5.7-17.3-12-23.2c-6.4-5.8-13.3-8.7-20.8-8.7c-5.7,0-10.3,1.5-13.6,4.6c-3.4,3.1-5,6.6-5,10.6c0,2.5,0.6,4.8,1.8,6.8c1.6,2.7,4.3,5.3,7.8,7.8c2.6,1.9,8.8,5.2,18.3,10c13.4,6.6,22.5,12.8,27.2,18.6c4.6,5.8,7,12.6,7,20.2C742.7,374.5,739,382.7,731.5,389.6z M881.6,634h18.3v113.2v13h-19.6v43.1H860V817v42.5H711.4V823h-16.6v-6v-39.3h-21.1v-30.4v-6.6h-18.9v-22.4v-16.2h-20.4v-19.6h-16.6v-4.5v-24.3v-2.6h31.4v2.6v14.5h20.4v9.8v40.3v9.8H691v-9.8v-40.3v-24.3v-49v-24.3v-48.9v-24.3v-28.3h38.9v28.3v24.3v48.9v24.3v48.3h21.5v-48.3v-24.3v-4h33.7v4v24.3v49v7.6h21.4v-7.6v-49v-8h29.8h3.1V675h21.5v-64.7h16.1v23.8L881.6,634L881.6,634z"/></g><g></g><g></g><g></g><g></g><g></g><g></g><g></g><g></g><g></g><g></g><g></g><g></g><g></g><g></g><g></g></g>
</svg>